<?xml version="1.0" standalone="no"?>
<!DOCTYPE svg PUBLIC "-//W3C//DTD SVG 20010904//EN"
 "http://www.w3.org/TR/2001/REC-SVG-20010904/DTD/svg10.dtd">
<svg version="1.0" xmlns="http://www.w3.org/2000/svg"
 width="353.000000pt" height="353.000000pt" viewBox="0 0 353.000000 353.000000"
 preserveAspectRatio="xMidYMid meet">
<metadata>
Created by potrace 1.11, written by Peter Selinger 2001-2013
</metadata>
<g transform="translate(0.000000,353.000000) scale(0.100000,-0.100000)"
fill="#000000" stroke="none">
<path d="M1706 3228 c-11 -6 -81 -59 -155 -118 -75 -58 -242 -189 -371 -291
-129 -101 -242 -189 -250 -196 -8 -7 -85 -67 -170 -133 -85 -67 -172 -136
-193 -155 l-37 -33 0 -534 0 -534 27 -26 c16 -14 125 -101 243 -193 209 -163
299 -234 350 -275 14 -11 124 -98 245 -192 121 -95 222 -175 225 -178 3 -3 25
-20 49 -38 48 -34 103 -42 143 -21 11 6 100 74 197 151 97 76 187 148 200 158
14 11 58 45 99 77 68 53 417 328 452 356 8 7 53 42 100 78 47 37 93 75 103 86
16 19 17 58 17 554 l1 534 -29 25 c-15 14 -75 62 -133 107 -57 44 -185 145
-284 223 -99 78 -227 178 -285 223 -58 45 -112 87 -120 94 -8 7 -87 69 -175
138 -136 107 -164 125 -195 125 -19 0 -44 -6 -54 -12z m-1076 -1065 c0 -5 17
-19 37 -33 20 -14 53 -38 73 -55 20 -16 52 -42 71 -57 297 -231 309 -241 309
-250 0 -4 -39 -37 -87 -75 -49 -37 -93 -72 -99 -78 -17 -15 -40 -33 -134 -105
-86 -65 -100 -77 -148 -117 -15 -13 -30 -23 -34 -23 -4 0 -7 180 -8 400 0 266
3 400 10 400 5 0 10 -3 10 -7z m2270 -394 c0 -220 -4 -399 -9 -397 -4 2 -25
17 -46 33 -21 17 -77 61 -124 98 -47 37 -93 73 -101 80 -8 7 -63 50 -123 96
-59 47 -106 88 -105 92 2 4 91 77 199 161 107 84 211 165 230 180 44 35 73 57
77 58 1 0 2 -180 2 -401z"/>
</g>
</svg>
